<svg width="164" height="164" viewBox="0 0 164 164" fill="none" xmlns="http://www.w3.org/2000/svg"><path d="M61.9792 6.14C62.1626 6.782 62.1219 7.3119 61.8162 7.84181C61.6735 8.09657 61.5308 8.31057 61.4085 8.47361C61.2965 8.62647 61.0926 8.84047 60.8379 9.11561L60.8175 9.13599L63.3957 10.7359C63.3855 10.4811 63.3651 10.2671 63.3345 10.1041C63.253 9.5538 63.0798 9.05447 62.825 8.60609L63.9154 8.19847C64.2109 8.73857 64.4147 9.29904 64.5166 9.91047C64.6083 10.42 64.5982 10.9193 64.5166 11.4288L66.6668 12.7638L65.1077 13.2122L64.109 12.5906C63.6097 13.4669 62.8352 14.0478 61.7856 14.3433C59.8494 14.8936 58.3412 14.2516 57.8826 12.6109C57.5464 11.4288 58.0151 10.5423 58.9526 9.54361L59.0546 9.44171L58.759 9.24809C57.9744 8.76914 57.4954 8.17809 57.3018 7.50552C57.1286 6.8839 57.1897 6.30305 57.4954 5.76296C57.8011 5.23305 58.3208 4.8662 59.0546 4.6522C60.3997 4.26496 61.6022 4.81524 61.9792 6.14ZM59.6048 8.3819L59.8698 8.55514L59.9106 8.51438C60.3385 8.05581 60.6035 7.72971 60.7054 7.5259C60.8583 7.21 60.8786 6.87371 60.7869 6.53743C60.5933 5.84448 60.0125 5.498 59.3399 5.69162C58.6571 5.88524 58.2801 6.48648 58.4737 7.15905C58.596 7.57685 58.973 7.98447 59.6048 8.3819ZM63.1307 11.9893L59.9819 10.0226L59.9411 10.0633C59.187 10.8582 58.8609 11.4492 59.0851 12.2339C59.3806 13.2835 60.2876 13.63 61.5206 13.2835C62.2849 13.0695 62.825 12.6415 63.1307 11.9893Z" fill="black"/><path d="M76.6636 0.891728C79.1399 0.728681 81.6264 1.29935 83.2467 2.74639L82.5945 3.62277C80.8315 2.45087 78.9871 2.18591 76.7554 2.33877C73.1887 2.58334 70.7838 4.21381 70.9468 6.65952C71.1098 9.10523 73.5454 10.4198 77.2547 10.165C79.4762 10.0122 81.3716 9.40075 82.9613 8.00466L83.746 8.74856C82.2684 10.5319 79.8329 11.4388 77.3566 11.6121C72.9441 11.9076 70.0195 10.1039 69.7953 6.74104C69.5609 3.36801 72.404 1.17706 76.6636 0.891728Z" fill="black"/><path d="M84.6428 8.20851C85.4784 8.94223 87.547 10.1549 91.3786 10.6338C94.1708 10.9803 96.4331 10.8275 96.5859 9.60461C96.7286 8.45309 94.8536 8.02509 91.1544 7.24042C86.6503 6.29271 84.6529 5.56919 84.9077 3.5311C85.1625 1.44206 87.9648 0.861205 91.4907 1.29939C94.5479 1.67644 96.8101 2.66491 98.1757 4.13234L97.3706 4.86605C95.9338 3.75529 93.8651 3.05215 91.236 2.72606C88.7189 2.41015 86.2223 2.41015 86.0694 3.61262C85.9471 4.6011 87.3025 5.03929 91.3175 5.78319C95.5261 6.56785 98.0228 7.42385 97.7375 9.77784C97.5133 11.551 95.3529 12.5802 90.9914 12.0401C86.9458 11.5408 84.7039 9.99184 83.8275 8.96261L84.6428 8.20851Z" fill="black"/><path d="M98.6037 10.0634C99.2762 10.9398 101.08 12.5295 104.759 13.7218C107.439 14.588 109.691 14.8733 110.068 13.7014C110.425 12.5907 108.672 11.8162 105.187 10.3488C100.947 8.56545 99.1234 7.47507 99.7552 5.5287C100.407 3.52118 103.261 3.49061 106.644 4.59118C109.569 5.53889 111.607 6.94517 112.666 8.64697L111.739 9.21764C110.537 7.85212 108.641 6.77193 106.124 5.94651C103.709 5.16184 101.263 4.68289 100.886 5.83441C100.581 6.78212 101.824 7.46488 105.625 8.96288C109.599 10.5322 111.902 11.8468 111.168 14.0989C110.618 15.8007 108.295 16.4019 104.117 15.0466C100.244 13.783 98.3387 11.8468 97.6661 10.6647L98.6037 10.0634Z" fill="black"/><path d="M123.55 15.5966C123.214 16.1672 122.796 16.5035 122.195 16.6462C121.909 16.7175 121.654 16.7583 121.451 16.7888C121.267 16.8092 120.972 16.8092 120.595 16.8092H120.564L121.165 19.7848C121.339 19.6014 121.481 19.4384 121.583 19.3059C121.93 18.8677 122.174 18.3989 122.317 17.9098L123.366 18.4193C123.183 19.0002 122.908 19.5403 122.531 20.0396C122.225 20.4472 121.858 20.7937 121.43 21.079L121.94 23.5553L120.544 22.7299L120.309 21.5783C119.331 21.8127 118.373 21.6497 117.436 21.0892C115.713 20.06 115.143 18.5314 116.009 17.064C116.641 16.0042 117.609 15.7392 118.974 15.7392H119.117L119.046 15.3928C118.862 14.4858 118.954 13.7419 119.311 13.1305C119.647 12.57 120.116 12.2235 120.707 12.0809C121.308 11.9382 121.93 12.0605 122.582 12.4579C123.825 13.1712 124.243 14.4145 123.55 15.5966ZM120.085 20.4574L119.351 16.8092H119.29C118.2 16.799 117.548 16.9825 117.13 17.6856C116.569 18.6231 116.936 19.5199 118.037 20.1721C118.72 20.5797 119.402 20.6816 120.085 20.4574ZM120.279 15.4131L120.34 15.7188H120.401C121.033 15.7188 121.451 15.6883 121.675 15.6169C122.011 15.515 122.266 15.2908 122.449 14.9953C122.816 14.3737 122.673 13.7215 122.062 13.3649C121.451 13.0082 120.758 13.1407 120.401 13.7419C120.177 14.1291 120.136 14.6794 120.279 15.4131Z" fill="black"/><path d="M126.087 26.3679L133.292 18.8779L134.128 19.683L131.203 22.7197L139.427 30.6377L142.351 27.6009L143.187 28.406L135.982 35.896L135.147 35.0909L138.438 31.6771L130.214 23.7592L126.923 27.173L126.087 26.3679Z" fill="black"/><path d="M143.503 31.0144L144.685 30.189L152.165 40.8176L150.983 41.643L147.579 36.8026L140.262 41.9589L139.59 41.0112L146.906 35.8549L143.503 31.0144Z" fill="black"/><path d="M143.971 46.9523L153.54 42.9067L153.989 43.9767L148.557 54.1162L159.614 57.2753L160.062 58.3453L150.493 62.3909L150.045 61.3209L157.729 58.0701L147.426 55.1251L147.039 54.2079L152.114 44.7818L144.43 48.0325L143.971 46.9523Z" fill="black"/><path d="M150.483 63.4509L160.684 61.4434L160.908 62.5847L152.124 64.3171L154.029 73.998L152.613 74.2731L150.483 63.4509Z" fill="black"/><path d="M156.669 80.224C155.293 80.6621 154.121 81.7423 154.019 84.5243C153.917 87.3063 154.865 88.896 156.74 88.9572L163.028 89.1712L162.987 90.3329L156.699 90.1291C153.887 90.0272 152.46 87.9177 152.582 84.5957C152.684 81.5487 153.958 79.6329 156.414 79.2559L156.669 80.224Z" fill="black"/><path d="M152.847 89.314L153.102 89.3649L161.703 97.9555L161.489 99.0153L150.228 103.601L149.974 103.55L150.239 102.256L153.571 100.89L155.14 93.1354L152.593 90.598L152.847 89.314ZM156.363 94.3684L155.181 100.248L160.185 98.2L156.363 94.3684Z" fill="black"/><path d="M160.399 103.805L160.633 103.887L160.185 105.11L149.841 107.372L156.241 115.82L155.792 117.043L155.558 116.961L148.272 107.382L148.639 106.383L160.399 103.805Z" fill="black"/><path d="M147.457 110.388L147.691 110.521L153.286 121.312L152.766 122.26L140.649 123.218L140.415 123.085L141.057 121.934L144.644 121.638L148.486 114.719L146.835 111.53L147.457 110.388ZM149.271 116.258L146.356 121.506L151.747 121.078L149.271 116.258Z" fill="black"/><path d="M142.688 124.665C141.628 124.97 139.478 126.051 137.001 129.026C135.198 131.187 134.107 133.174 135.055 133.969C135.952 134.712 137.317 133.367 139.977 130.677C143.207 127.396 144.889 126.112 146.468 127.426C148.088 128.771 147.059 131.431 144.787 134.172C142.82 136.537 140.762 137.902 138.785 138.269L138.601 137.189C140.313 136.577 142.025 135.222 143.717 133.184C145.337 131.237 146.692 129.128 145.765 128.364C145.001 127.722 143.9 128.629 141.098 131.604C138.163 134.712 136.094 136.363 134.27 134.845C132.894 133.704 133.2 131.319 136.013 127.946C138.622 124.818 141.128 123.768 142.474 123.584L142.688 124.665Z" fill="black"/><path d="M133.109 145.759C131.193 147.328 128.839 148.306 126.668 148.072L126.689 146.982C128.798 146.921 130.469 146.054 132.191 144.648C134.963 142.386 135.972 139.655 134.413 137.759C132.854 135.864 130.113 136.21 127.239 138.554C125.517 139.971 124.324 141.56 123.845 143.619L122.775 143.476C122.949 141.173 124.406 139.013 126.322 137.443C129.746 134.641 133.17 134.417 135.31 137.026C137.45 139.624 136.41 143.048 133.109 145.759Z" fill="black"/><path d="M120.941 141.948L125.833 151.119L117.507 155.562C115.306 156.734 113.441 156.602 112.442 154.727C111.525 153.015 112.228 151.506 114.052 150.365L109.62 148.296L109.487 148.052L110.7 147.41L115.428 149.611L121.868 146.177L119.902 142.498L120.941 141.948ZM122.561 147.451L115.112 151.425C113.543 152.26 112.942 153.178 113.472 154.186C114.012 155.206 115.112 155.206 116.682 154.37L124.131 150.396L122.561 147.451Z" fill="black"/><path d="M108.234 148.266L112.024 157.947L110.944 158.375L107.153 148.694L108.234 148.266Z" fill="black"/><path d="M106.124 149.366L108.794 159.414L100.275 161.676C97.4623 162.42 95.8319 161.676 95.2816 159.618C94.7313 157.559 95.7911 156.133 98.6037 155.379L106.002 153.412L105.003 149.662L106.124 149.366ZM106.369 154.808L98.7158 156.836C96.7286 157.366 96.1172 158.232 96.4025 159.312C96.6879 160.392 97.6661 160.871 99.6431 160.341L107.296 158.313L106.369 154.808Z" fill="black"/><path d="M94.3542 161.585L94.4663 163.022L81.5041 164L81.392 162.563L87.2923 162.115L86.6197 153.188L87.7814 153.096L88.454 162.023L94.3542 161.585Z" fill="black"/><path d="M69.0718 159.995C69.1635 159.333 69.408 158.864 69.9074 158.507C70.1418 158.334 70.3558 158.191 70.5392 158.089C70.7022 157.998 70.9774 157.886 71.3137 157.733L71.3442 157.722L69.6322 155.216C69.5405 155.46 69.4692 155.654 69.4386 155.817C69.296 156.357 69.245 156.887 69.3061 157.396L68.1444 157.335C68.0935 156.724 68.1342 156.133 68.2871 155.521C68.4094 155.022 68.6132 154.563 68.8985 154.135L67.4719 152.046L69.082 152.271L69.7443 153.249C70.5596 152.648 71.4971 152.434 72.5773 152.576C74.5644 152.851 75.6854 154.044 75.451 155.735C75.2777 156.958 74.4931 157.58 73.2295 158.11L73.097 158.161L73.2906 158.456C73.8103 159.21 74.0243 159.944 73.9224 160.647C73.8307 161.289 73.5352 161.799 73.0358 162.166C72.5365 162.532 71.9149 162.655 71.1608 162.553C69.7545 162.339 68.8883 161.35 69.0718 159.995ZM72.1493 158.894L71.976 158.629L71.9149 158.65C71.334 158.894 70.957 159.088 70.7838 159.231C70.5188 159.455 70.3558 159.761 70.315 160.107C70.2131 160.82 70.6003 161.36 71.3035 161.462C72.0066 161.564 72.5875 161.167 72.6894 160.464C72.7505 160.046 72.5671 159.516 72.1493 158.894ZM70.3761 154.176L72.4652 157.254L72.5263 157.233C73.5352 156.816 74.0651 156.398 74.1772 155.593C74.33 154.512 73.6371 153.83 72.3735 153.646C71.5786 153.524 70.9162 153.697 70.3761 154.176Z" fill="black"/><path d="M52.4206 158.456C50.0972 157.58 48.0794 156.021 47.2133 154.034L48.1712 153.504C49.2819 155.308 50.8512 156.316 52.9403 157.111C56.2827 158.385 59.1463 157.896 60.0226 155.603C60.899 153.31 59.2278 151.109 55.7529 149.784C53.6638 148.989 51.6971 148.765 49.6692 149.367L49.2615 148.368C51.3506 147.369 53.9491 147.553 56.2624 148.439C60.3997 150.009 62.3053 152.872 61.1028 156.021C59.9106 159.17 56.4152 159.975 52.4206 158.456Z" fill="black"/><path d="M48.2221 148.47C47.7737 147.461 46.4082 145.484 43.1269 143.436C40.7423 141.948 38.6125 141.133 37.9603 142.182C37.3489 143.171 38.8673 144.343 41.904 146.605C45.593 149.357 47.1012 150.844 46.021 152.587C44.9102 154.38 42.1282 153.728 39.1017 151.843C36.4929 150.223 34.8523 148.368 34.2204 146.462L35.2599 146.126C36.0955 147.746 37.675 149.244 39.9271 150.641C42.0773 151.976 44.3497 153.035 44.9816 152.006C45.5115 151.16 44.4618 150.192 41.1296 147.828C37.6444 145.352 35.7286 143.528 36.9821 141.51C37.9298 139.992 40.3245 139.961 44.0542 142.284C47.519 144.435 48.8947 146.778 49.2615 148.083L48.2221 148.47Z" fill="black"/><path d="M36.3401 140.929C36.0955 139.848 35.1172 137.647 32.2843 135.028C30.2156 133.123 28.2896 131.92 27.454 132.827C26.6591 133.683 27.9329 135.12 30.4907 137.912C33.5988 141.306 34.7911 143.058 33.4052 144.567C31.9786 146.116 29.3698 144.954 26.7509 142.539C24.4886 140.45 23.225 138.32 22.9702 136.333L24.0504 136.2C24.5701 137.943 25.8337 139.716 27.7801 141.52C29.6449 143.242 31.6728 144.699 32.4881 143.813C33.1606 143.079 32.3148 141.937 29.4921 138.992C26.5369 135.905 24.9981 133.744 26.6082 132.002C27.8209 130.687 30.185 131.115 33.4052 134.091C36.4012 136.852 37.3183 139.42 37.4304 140.766L36.3401 140.929Z" fill="black"/><path d="M15.9795 125.49C16.5298 125.113 17.0394 124.981 17.6406 125.093C17.9259 125.144 18.1807 125.215 18.3743 125.276C18.5475 125.337 18.8227 125.46 19.159 125.613L19.1895 125.623L19.8825 122.668C19.6481 122.759 19.4545 122.851 19.3016 122.933C18.8023 123.187 18.3845 123.513 18.0482 123.901L17.3043 122.994C17.7119 122.545 18.1807 122.168 18.731 121.873C19.1895 121.628 19.6583 121.465 20.1678 121.384L20.7385 118.917L21.6556 120.252L21.3907 121.394C22.3791 121.587 23.174 122.127 23.8058 123.034C24.9471 124.685 24.8249 126.316 23.4288 127.284C22.4097 127.987 21.4314 127.824 20.178 127.253L20.0455 127.192L19.964 127.539C19.7602 128.435 19.3628 129.077 18.7819 129.485C18.2418 129.852 17.6712 129.984 17.0699 129.862C16.4687 129.74 15.9592 129.373 15.521 128.741C14.7159 127.579 14.8586 126.275 15.9795 125.49ZM18.8736 127.019L18.945 126.713L18.894 126.683C18.3234 126.418 17.9259 126.275 17.7017 126.244C17.3553 126.204 17.0292 126.285 16.7438 126.489C16.1528 126.897 16.0101 127.549 16.4177 128.13C16.8254 128.711 17.5081 128.874 18.089 128.476C18.4354 128.232 18.7004 127.742 18.8736 127.019ZM21.1461 122.515L20.2901 126.132L20.3411 126.163C21.3295 126.621 22.0021 126.734 22.6747 126.275C23.5714 125.653 23.6122 124.685 22.8887 123.636C22.4403 122.963 21.8594 122.596 21.1461 122.515Z" fill="black"/><path d="M14.7058 115.677C15.7656 114.698 16.377 113.231 15.2968 110.663C14.2166 108.095 12.6982 107.055 10.9659 107.779L5.1675 110.225L4.71912 109.155L10.5175 106.709C13.1059 105.619 15.2866 106.943 16.5808 110.001C17.7629 112.813 17.4062 115.075 15.3477 116.461L14.7058 115.677Z" fill="black"/><path d="M14.3491 105.833L14.0943 105.894L2.68102 101.685L2.43645 100.636L10.7417 91.7599L10.9964 91.6987L11.3021 92.9827L8.84624 95.6119L10.6703 103.316L14.0434 104.549L14.3491 105.833ZM9.06024 102.715L7.67434 96.8755L3.9752 100.829L9.06024 102.715Z" fill="black"/><path d="M1.43779 95.8466L1.19321 95.867L1.09131 94.5728L9.53919 88.1834L0.17417 83.1901L0.0722656 81.8959L0.316836 81.8755L10.9455 87.521L11.027 88.5808L1.43779 95.8466Z" fill="black"/><path d="M10.4258 84.4331L10.1608 84.4127L0.541031 76.9839L0.622554 75.9037L11.2104 69.9219L11.4754 69.9423L11.3837 71.2568L8.2552 73.03L7.69472 80.9276L10.5379 83.1185L10.4258 84.4331ZM6.30882 79.8677L6.73682 73.886L2.02884 76.5559L6.30882 79.8677Z" fill="black"/><path d="M8.73414 69.4634C9.56976 68.7398 11.0576 66.8546 12.0562 63.1147C12.7797 60.3939 12.9326 58.1316 11.7403 57.8157C10.6194 57.5202 9.93662 59.3137 8.66281 62.8803C7.11386 67.2113 6.12539 69.0863 4.14844 68.5666C2.11035 68.0265 1.91674 65.1834 2.83388 61.739C3.61854 58.7634 4.91273 56.654 6.55339 55.5024L7.175 56.3992C5.88082 57.673 4.90254 59.6194 4.21978 62.1874C3.56759 64.6433 3.2313 67.1195 4.39301 67.4253C5.36111 67.68 5.97253 66.396 7.25653 62.5237C8.60167 58.4679 9.79395 56.1037 12.0868 56.7049C13.8192 57.1635 14.5427 59.4461 13.4116 63.6956C12.3619 67.6291 10.5277 69.6366 9.38633 70.3703L8.73414 69.4634Z" fill="black"/><path d="M8.57109 46.3002C9.65128 44.0685 11.3837 42.1934 13.4421 41.5005L13.8803 42.4992C11.9849 43.4469 10.8334 44.9143 9.86528 46.9218C8.30614 50.142 8.52014 53.0361 10.7315 54.1061C12.9326 55.1761 15.2866 53.7188 16.9069 50.3764C17.8852 48.3688 18.2928 46.4225 17.8648 44.3538L18.894 44.0379C19.7092 46.2085 19.2914 48.7765 18.2011 51.0082C16.2649 54.9824 13.2485 56.6333 10.2219 55.1557C7.19538 53.6781 6.69605 50.1318 8.57109 46.3002Z" fill="black"/><path d="M21.2073 44.6598L12.9224 38.3825L18.6189 30.862C20.1271 28.8749 21.8798 28.2125 23.5612 29.4965C25.1102 30.6684 25.1 32.3294 23.9281 34.1331L28.8195 34.1535L29.0437 34.3166L28.2183 35.4069L23.0008 35.3865L18.5883 41.2155L21.9104 43.7325L21.2073 44.6598ZM17.4368 40.3493L22.532 33.6236C23.602 32.2071 23.7651 31.1168 22.8683 30.434C21.9512 29.741 20.9423 30.1894 19.8723 31.6059L14.7771 38.3316L17.4368 40.3493Z" fill="black"/><path d="M30.1035 33.5931L22.6033 26.3986L23.4084 25.563L30.9085 32.7574L30.1035 33.5931Z" fill="black"/><path d="M31.5607 31.7176L24.9064 23.7283L31.683 18.093C33.9249 16.2282 35.7082 16.218 37.0738 17.8586C38.4393 19.4993 38.0826 21.2419 35.8509 23.0965L29.971 27.9879L32.4575 30.9737L31.5607 31.7176ZM29.0539 26.8772L35.1376 21.8125C36.7171 20.498 36.9107 19.4585 36.1872 18.5924C35.4739 17.7262 34.3835 17.7058 32.8142 19.0204L26.7305 24.0952L29.0539 26.8772Z" fill="black"/><path d="M37.084 15.6778L36.3808 14.4243L47.7228 8.07568L48.4259 9.32911L43.2594 12.2232L47.6311 20.0291L46.612 20.5997L42.2505 12.7837L37.084 15.6778Z" fill="black"/></svg>
