<svg width="108" height="108" viewBox="0 0 108 108" fill="none" xmlns="http://www.w3.org/2000/svg"><path d="M43.9913 6.13258C44.367 7.52257 43.2118 8.28331 41.7749 8.66838C40.7606 8.94074 40.0656 8.95013 39.4739 9.08162L38.7037 9.26945L38.685 9.18493C39.2109 9.05344 39.2766 8.91256 39.1264 8.37723L37.7552 3.23051C37.6143 2.68578 37.4828 2.60126 36.9663 2.74213L36.9381 2.64822L37.7082 2.4416C38.2811 2.25376 38.8822 1.92504 39.6711 1.71842C41.1644 1.32397 42.2163 1.71842 42.498 2.79848C42.7516 3.73767 42.1693 4.32935 41.4086 4.70503C42.6014 4.60172 43.672 4.91165 43.9913 6.13258ZM38.5535 5.26854C39.1452 5.18401 39.6805 5.06192 40.197 4.92104C41.9439 4.45145 42.4605 3.73767 42.2257 2.86423C41.9627 1.87809 41.0141 1.54937 39.7087 1.89687C39.2015 2.02835 38.7319 2.22558 37.8397 2.61065L38.5535 5.26854ZM43.7284 6.19833C43.3621 4.8459 41.9909 4.63928 40.4131 5.06192C39.765 5.23097 39.2673 5.32489 38.6004 5.45637L39.5114 8.84682C40.4788 8.73412 41.0329 8.64959 41.7279 8.47115C42.8831 8.16122 44.0947 7.56014 43.7284 6.19833Z" fill="black"/><path d="M44.3764 1.57774C44.3106 1.02363 44.1979 0.920315 43.6626 0.986058L43.6532 0.89214L45.1653 0.704303L45.1747 0.798221C44.6394 0.863964 44.5548 0.99545 44.63 1.54957L45.0526 4.94941C45.2874 6.80899 46.5271 7.41007 47.9735 7.22223C49.401 7.04379 50.4247 6.06704 50.2275 4.51739L49.7767 0.910923C49.7109 0.356805 49.5982 0.253495 49.0629 0.319238L49.0535 0.22532L50.5186 0.046875L50.528 0.140793C49.9927 0.206536 49.9082 0.338022 49.9833 0.89214L50.4247 4.42347C50.6407 6.16096 49.6546 7.26919 48.0204 7.47581C46.4989 7.66365 45.0902 7.15649 44.8084 4.91184L44.3764 1.57774Z" fill="black"/><path d="M51.8053 0.873501C51.7865 0.309991 51.6832 0.197289 51.1479 0.216073V0.122154L52.6694 0.0751953V0.169114C52.134 0.187897 52.0401 0.309991 52.0495 0.864109L52.2186 6.17988C52.2374 6.74339 52.3407 6.8561 52.876 6.83731V6.93123L51.3545 6.97819V6.88427C51.8899 6.86549 51.9838 6.74339 51.9744 6.18928L51.8053 0.873501Z" fill="black"/><path d="M58.5581 4.84618L58.0603 7.08144L53.2423 6.85604V6.76212C53.7776 6.79029 53.8809 6.67759 53.9091 6.11408L54.1533 0.798305C54.1815 0.234796 54.0875 0.112702 53.5428 0.0939183V0L55.0643 0.0657428V0.159661C54.529 0.131486 54.4256 0.244188 54.3975 0.807697L54.1251 6.69637L57.4216 6.84664C57.9194 6.86543 57.8912 6.85604 58.3514 4.8274L58.5581 4.84618Z" fill="black"/><path d="M58.5956 7.09084L58.6144 6.99693C59.1497 7.09084 59.2624 6.98753 59.3563 6.43342L60.258 1.19278C60.3519 0.638658 60.2767 0.507173 59.7414 0.413254L59.7602 0.319336L60.5491 0.44143C60.9811 0.488389 61.4225 0.403862 62.296 0.554132C64.2871 0.892237 65.5362 2.35736 65.1229 4.7241C64.7191 7.09084 63.0567 8.0582 61.0657 7.7107C60.1734 7.56044 59.8635 7.33503 59.3845 7.22233L58.5956 7.09084ZM59.4972 7.04389C59.8353 7.22233 60.3331 7.38199 60.9905 7.49469C62.991 7.84219 64.4749 6.81848 64.8412 4.66775C65.2075 2.51702 64.1556 1.06129 62.1551 0.723185C61.4977 0.610483 60.9717 0.601091 60.5961 0.657442L59.4972 7.04389Z" fill="black"/><path d="M66.8135 2.48864C66.9543 1.94392 66.8886 1.81243 66.3626 1.67156L66.3908 1.57764L67.8653 1.9627L67.8372 2.05662C67.3112 1.92513 67.1891 2.00966 67.0483 2.55439L65.724 7.70111C65.5831 8.24584 65.6489 8.37732 66.1748 8.5182L66.1466 8.61212L64.6721 8.22705L64.7003 8.13313C65.2262 8.26462 65.3483 8.18009 65.4892 7.63537L66.8135 2.48864Z" fill="black"/><path d="M75.4633 4.65801C74.9562 4.47017 74.8247 4.54531 74.6275 5.07125L72.5331 10.8003L72.3452 10.7345L69.6122 3.05201C69.5747 2.95809 69.5465 2.87356 69.5089 2.79843L67.546 8.15177C67.3488 8.67771 67.4051 8.81859 67.9123 9.00643L67.8747 9.10034L66.4941 8.59318L66.5317 8.49927C67.0389 8.6871 67.1704 8.61197 67.3676 8.08603L69.3868 2.58241C69.2553 2.42275 69.0957 2.32884 68.8515 2.24431L68.8891 2.15039L69.6592 2.43215L72.4767 10.3776L74.449 5.0149C74.6462 4.48896 74.5899 4.34808 74.0827 4.16024L74.1203 4.06632L75.5009 4.57348L75.4633 4.65801Z" fill="black"/><path d="M79.4924 6.46129C80.7133 7.1375 80.7979 7.96398 81.1735 8.1706L80.7509 9.95505L80.5818 9.86113C81.0796 8.12364 80.394 7.17507 79.3985 6.63034C78.1588 5.94474 76.224 6.18893 75.1064 8.20817C74.0451 10.1429 74.8059 11.8522 76.4964 12.782C77.2571 13.1952 77.7831 13.4019 78.4781 13.693L79.7648 11.3544C79.9714 10.9788 79.962 10.9975 77.8676 9.62634L77.9615 9.45728L80.826 11.3357L80.7321 11.5047C80.1592 11.1384 80.178 11.1102 79.9338 11.5517L78.5814 14.0123C77.7737 13.6366 77.2947 13.5239 76.3649 13.0168C74.7495 12.1246 73.6225 10.3213 74.8622 8.06729C76.0362 5.97292 78.093 5.69116 79.4924 6.46129Z" fill="black"/><path d="M89.6638 16.9522L89.5135 16.8207C90.5936 15.0363 90.6217 15.0457 90.2461 14.7169L88.8749 13.5148L84.996 17.9571C84.6297 18.3798 84.6204 18.53 85.0336 18.8869L84.9679 18.9621L83.8221 17.9571L83.8878 17.882C84.2916 18.2389 84.4419 18.2107 84.8176 17.7881L88.6964 13.3457L87.3252 12.1436C86.9495 11.8149 86.9683 11.843 85.3435 13.1485L85.1933 13.017L86.9777 11.5801L90.8753 14.9799L89.6638 16.9522Z" fill="black"/><path d="M96.1066 20.9438C95.7497 20.5399 95.5994 20.5399 95.1768 20.9062L91.1665 24.4C90.7438 24.7663 90.725 24.9165 91.0725 25.3298L90.9974 25.3955L90.0019 24.2497L90.077 24.184C90.4339 24.5878 90.5842 24.5878 91.0068 24.2215L92.9603 22.5216L89.8798 18.9903L87.9263 20.6902C87.5036 21.0565 87.4849 21.2067 87.8324 21.62L87.7572 21.6857L86.7617 20.5399L86.8368 20.4742C87.1937 20.878 87.344 20.878 87.7666 20.5118L91.7769 17.018C92.1996 16.6517 92.2183 16.5014 91.8708 16.0882L91.946 16.0225L92.9415 17.1683L92.8664 17.234C92.5095 16.8302 92.3592 16.8302 91.9366 17.1964L90.03 18.8588L93.1106 22.3901L95.0171 20.7278C95.4397 20.3615 95.4585 20.2112 95.111 19.798L95.1862 19.7322L96.1817 20.878L96.1066 20.9438Z" fill="black"/><path d="M95.9563 28.8139L93.8619 29.7344L91.1477 25.6395L91.2322 25.5832C91.5328 26.034 91.683 26.0528 92.1526 25.7428L96.5856 22.8032C97.0552 22.4933 97.0927 22.343 96.8016 21.9016L96.8861 21.8452L99.4407 25.6959L97.7783 27.2737L97.6656 27.114C99.1777 25.6771 99.1965 25.6959 98.9241 25.2826L97.2054 22.6999L94.7636 24.3247L96.0033 26.1936C96.1066 26.3533 96.1911 26.2969 96.9612 25.6771L97.0739 25.8367L95.1956 27.4427L95.0829 27.2831C95.8812 26.5317 95.9751 26.5036 95.8248 26.2594L94.6133 24.4374L91.8239 26.2875L93.7023 29.1145C93.9746 29.5277 93.9746 29.4996 95.8812 28.6731L95.9563 28.8139Z" fill="black"/><path d="M97.9098 32.4586L97.9849 32.637C96.5104 33.6701 96.5198 35.0132 97.1021 36.4313C97.5717 37.5865 98.3982 38.1688 99.3468 37.7838C100.342 37.3799 100.389 36.7319 100.201 34.5342C100.042 32.7216 100.107 31.8951 101.094 31.5006C102.08 31.0968 102.887 31.9233 103.263 32.8437C103.864 34.3182 103.395 34.985 103.573 35.4076L102.127 36.5347L102.052 36.3562C103.526 35.3231 103.629 34.243 103.085 32.9188C102.756 32.1205 101.995 31.4349 101.197 31.7636C100.427 32.0829 100.286 32.6934 100.446 34.5436C100.633 36.6849 100.615 37.5678 99.4501 38.0467C98.3043 38.5163 97.4402 37.7932 96.9143 36.5159C96.2287 34.8441 96.6325 34.0082 96.4541 33.5856L97.9098 32.4586Z" fill="black"/><path d="M101.629 43.3995L99.3468 43.6062L98.0695 38.8539L98.1634 38.8257C98.3043 39.3423 98.4451 39.408 98.9805 39.2671L104.118 37.8771C104.663 37.7269 104.747 37.6048 104.606 37.0882L104.7 37.0601L105.902 41.5212L103.827 42.4885L103.78 42.3007C105.667 41.4179 105.686 41.4367 105.555 40.9577L104.747 37.9617L101.911 38.7224L102.493 40.8825C102.54 41.061 102.634 41.0328 103.564 40.6947L103.611 40.8825L101.319 41.8029L101.272 41.6151C102.268 41.1549 102.371 41.1549 102.296 40.8825L101.723 38.7694L98.4921 39.6428L99.3749 42.9206C99.5064 43.3995 99.5064 43.3714 101.582 43.1929L101.629 43.3995Z" fill="black"/><path d="M100.079 48.4709L106.334 45.1274L100.464 44.9114C99.9103 44.8926 99.7976 44.9772 99.8633 45.5782L99.7694 45.5876L99.6097 44.0568L99.7037 44.0474C99.76 44.5827 99.8915 44.6954 100.446 44.7142L105.837 44.9114C106.391 44.9302 106.494 44.8081 106.419 44.0568L106.513 44.0474L106.635 45.2401L100.314 48.6118L107.198 50.5559L107.32 51.7393L107.227 51.7487C107.151 50.9973 107.02 50.9034 106.485 51.0443L101.253 52.3779C100.718 52.5282 100.615 52.6597 100.671 53.2044L100.577 53.2138L100.408 51.6454L100.502 51.636C100.568 52.2183 100.69 52.284 101.225 52.1431L106.917 50.678L100.098 48.7527L100.079 48.4709Z" fill="black"/><path d="M100.821 59.3096C100.286 59.4693 100.173 59.6383 100.136 60.1831L100.042 60.1737L100.164 58.3798L100.258 58.3892C100.211 59.1406 100.314 59.2063 100.84 59.0467L102.192 58.6334L102.427 55.1584L101.131 54.5292C100.624 54.285 100.521 54.3413 100.474 55.0927L100.38 55.0833L100.493 53.3364L100.586 53.3458C100.549 53.8811 100.633 54.069 101.141 54.3038L107.029 57.1307L107.123 57.1025L107.217 57.1119C107.236 57.1589 107.255 57.1965 107.311 57.2059L107.302 57.2998L100.821 59.3096ZM102.615 55.2524L102.399 58.5771L106.757 57.2434L102.615 55.2524Z" fill="black"/><path d="M105.123 68.6355C105.235 68.1095 105.142 67.9874 104.597 67.8653L98.6424 66.5599L98.68 66.372L105.921 62.6247C106.015 62.5777 106.09 62.5308 106.165 62.4838L100.596 61.2629C100.051 61.1408 99.9103 61.2159 99.7976 61.7419L99.7037 61.7231L100.023 60.2861L100.117 60.3049C100.004 60.8309 100.098 60.9529 100.643 61.075L106.362 62.3336C106.503 62.1833 106.578 62.0048 106.625 61.7606L106.719 61.7794L106.541 62.5871L99.0462 66.4566L104.625 67.6775C105.17 67.7996 105.311 67.7245 105.423 67.1985L105.517 67.2173L105.198 68.6542L105.123 68.6355Z" fill="black"/><path d="M100.633 74.5341L100.699 74.3462C102.747 74.7313 102.747 74.7595 102.925 74.2899L103.573 72.5806L98.0507 70.4956C97.5247 70.2983 97.3839 70.3453 97.196 70.8525L97.1021 70.8149L97.6374 69.3873L97.7314 69.4249C97.5435 69.9321 97.6187 70.0635 98.1352 70.2608L103.658 72.3458L104.306 70.6364C104.484 70.1669 104.465 70.195 102.671 69.1244L102.737 68.9365L104.709 70.1011L102.887 74.9379L100.633 74.5341Z" fill="black"/><path d="M101.357 76.3087C101.864 76.5529 102.014 76.5153 102.239 76.0269L102.324 76.0739L101.667 77.4451L101.582 77.3981C101.817 76.9098 101.751 76.7689 101.244 76.5341L96.4447 74.2331C95.9375 73.9889 95.7873 74.0265 95.5619 74.5148L95.4773 74.4679L96.1348 73.0967L96.2193 73.1436C95.9845 73.632 96.0502 73.7729 96.5574 74.0077L101.357 76.3087Z" fill="black"/><path d="M99.807 81.2481C99.0932 82.4409 98.2667 82.4972 98.0413 82.8729L96.2756 82.3939L96.3789 82.2249C98.0977 82.779 99.065 82.1215 99.6473 81.1542C100.417 79.8675 100.23 77.9046 98.2479 76.7212C96.4447 75.6506 94.6978 76.2047 93.7868 77.7262C93.0167 79.0222 93.2045 80.2901 94.5382 81.6801L94.3879 81.8116C92.8101 80.2526 92.8101 78.825 93.5426 77.5853C94.5006 75.9793 96.3977 75.3125 98.3794 76.4865C100.446 77.7074 100.671 79.7924 99.807 81.2481Z" fill="black"/><path d="M87.1656 95.656C87.5506 95.2804 87.6258 95.0737 87.4473 94.5384L85.259 87.7669L85.3248 87.7012L87.7667 88.5558L86.9777 86.0858L87.0435 86.02L93.7586 88.3586C94.2846 88.5464 94.4912 88.4807 94.8763 88.105L94.942 88.1707L93.6459 89.4293L93.5802 89.3635C94.1249 88.8376 94.078 88.7343 93.552 88.5558L87.2501 86.3675L87.9827 88.6309L92.0305 90.0491C92.5565 90.2369 92.7631 90.1712 93.1482 89.7955L93.2139 89.8613L91.9178 91.1198L91.8521 91.054C92.3968 90.5281 92.3499 90.4248 91.8239 90.2463L88.0672 88.9503L89.2881 92.7258C89.4666 93.2517 89.5605 93.2987 90.0958 92.7727L90.1616 92.8385L88.9125 94.0594L88.8467 93.9937C89.2318 93.618 89.3069 93.4114 89.1285 92.8761L87.87 88.847L85.5596 88.0393L87.607 94.3881C87.7854 94.9141 87.8794 94.961 88.4147 94.4351L88.4804 94.5008L87.2313 95.7218L87.1656 95.656Z" fill="black"/><path d="M79.0792 95.5622L78.1306 93.4772L82.1879 90.6973L82.2442 90.7818C81.8028 91.0823 81.784 91.242 82.1034 91.7022L85.1087 96.0976C85.4281 96.5578 85.5689 96.6047 86.0198 96.2948L86.0761 96.3793L82.263 98.9902L80.6664 97.3467L80.8261 97.234C82.2818 98.7179 82.263 98.7461 82.6763 98.4643L85.2402 96.7174L83.5873 94.2943L81.7371 95.5622C81.5868 95.6655 81.6432 95.7501 82.263 96.5108L82.1034 96.6235L80.4786 94.7639L80.6382 94.6512C81.399 95.4401 81.4365 95.5341 81.6713 95.3744L83.4746 94.1347L81.5868 91.3735L78.788 93.2894C78.3748 93.5712 78.403 93.5618 79.267 95.4589L79.0792 95.5622Z" fill="black"/><path d="M73.106 98.0413C72.4485 96.7546 73.4065 95.7779 74.7401 95.0923C75.6699 94.6133 76.3555 94.4536 76.9003 94.2L77.6141 93.8525L77.6516 93.9277C77.1632 94.1625 77.1351 94.3127 77.3886 94.8105L79.8305 99.5534C80.0841 100.051 80.225 100.108 80.704 99.8633L80.7509 99.9478L80.0465 100.314C79.53 100.615 79.0134 101.065 78.2809 101.441C76.9097 102.146 75.8014 101.976 75.2849 100.981C74.8435 100.117 75.2849 99.4125 75.9423 98.8866C74.7965 99.2341 73.6883 99.1589 73.106 98.0413ZM73.3595 97.9098C73.9982 99.1589 75.3882 99.065 76.8345 98.3231C77.4262 98.0225 77.8958 97.8159 78.5251 97.5529L76.9191 94.4254C75.9987 94.7448 75.4727 94.942 74.8341 95.2613C73.7634 95.8154 72.7115 96.6513 73.3595 97.9098ZM78.6096 97.722C78.0461 97.938 77.5577 98.1634 77.0787 98.4076C75.4727 99.2341 75.1158 100.042 75.5291 100.849C75.9987 101.76 76.9942 101.873 78.187 101.263C78.6472 101.028 79.0698 100.727 79.8681 100.173L78.6096 97.722Z" fill="black"/><path d="M63.6578 101.065C63.2728 99.6753 64.4186 98.9146 65.8555 98.5201C66.8698 98.2384 67.5648 98.2196 68.1471 98.0975L68.9173 97.9097L68.936 97.9942C68.4101 98.1257 68.3538 98.2666 68.4946 98.8113L69.9034 103.939C70.0537 104.475 70.1758 104.568 70.7017 104.428L70.7299 104.522L69.9598 104.728C69.3869 104.916 68.7952 105.254 68.0063 105.47C66.5223 105.874 65.4705 105.489 65.1699 104.409C64.9163 103.47 65.4892 102.878 66.2406 102.493C65.0666 102.577 63.9959 102.277 63.6578 101.065ZM63.9302 100.99C64.3059 102.343 65.6771 102.54 67.2455 102.108C67.8936 101.929 68.3913 101.835 69.0581 101.704L68.1284 98.3135C67.161 98.4356 66.6069 98.5201 65.9119 98.708C64.7567 99.0179 63.5545 99.6284 63.9302 100.99ZM69.1051 101.882C68.5134 101.976 67.9875 102.098 67.4615 102.239C65.724 102.718 65.2075 103.441 65.4423 104.306C65.7146 105.292 66.6632 105.611 67.9593 105.254C68.4571 105.113 68.936 104.916 69.8283 104.531L69.1051 101.882Z" fill="black"/><path d="M63.3103 105.611C63.3854 106.165 63.4981 106.268 64.0335 106.203L64.0429 106.296L62.5308 106.494L62.5214 106.4C63.0567 106.325 63.1413 106.203 63.0661 105.648L62.6153 102.249C62.3711 100.389 61.122 99.7973 59.6757 99.9945C58.2481 100.182 57.2338 101.168 57.4404 102.718L57.9194 106.325C57.9945 106.879 58.1072 106.982 58.6426 106.916L58.652 107.01L57.1962 107.198L57.1868 107.104C57.7222 107.029 57.8067 106.907 57.7316 106.353L57.262 102.821C57.0366 101.093 58.0133 99.9663 59.6475 99.7503C61.169 99.5531 62.5778 100.051 62.8783 102.295L63.3103 105.611Z" fill="black"/><path d="M55.8908 106.372C55.9096 106.935 56.0129 107.048 56.5576 107.02V107.114L55.0361 107.17V107.076C55.5715 107.057 55.6654 106.935 55.6466 106.372L55.44 101.056C55.4212 100.493 55.3179 100.38 54.7732 100.408V100.314L56.2946 100.258V100.352C55.7593 100.371 55.6654 100.493 55.6842 101.056L55.8908 106.372Z" fill="black"/><path d="M49.1099 102.446L49.5889 100.202L54.4069 100.389V100.483C53.8715 100.465 53.7682 100.577 53.7401 101.131L53.5334 106.447C53.5147 107.011 53.6086 107.123 54.1439 107.152V107.246L52.6224 107.189V107.095C53.1578 107.114 53.2611 107.001 53.2893 106.447L53.5241 100.549L50.2275 100.418C49.7298 100.399 49.7579 100.408 49.3165 102.446H49.1099Z" fill="black"/><path d="M49.0535 100.202L49.0347 100.295C48.4994 100.211 48.3867 100.305 48.2928 100.859L47.4287 106.109C47.3348 106.663 47.4193 106.795 47.9453 106.879L47.9265 106.973L47.1376 106.851C46.7056 106.813 46.2641 106.898 45.3907 106.757C43.3996 106.428 42.1411 104.982 42.5356 102.606C42.9301 100.23 44.5736 99.2624 46.5741 99.5911C47.4663 99.7414 47.7762 99.9574 48.2552 100.07L49.0535 100.202ZM48.1519 100.249C47.8138 100.07 47.316 99.9104 46.6492 99.8071C44.6488 99.4784 43.1742 100.512 42.8173 102.662C42.4605 104.813 43.5311 106.259 45.5316 106.588C46.189 106.701 46.715 106.701 47.0906 106.644L48.1519 100.249Z" fill="black"/><path d="M40.8639 104.86C40.723 105.405 40.7981 105.536 41.3147 105.677L41.2865 105.771L39.812 105.395L39.8401 105.301C40.3661 105.433 40.4882 105.339 40.6197 104.803L41.9157 99.6473C42.0566 99.1026 41.9815 98.9711 41.4649 98.8302L41.4931 98.7363L42.9676 99.112L42.9394 99.2059C42.4135 99.0744 42.2914 99.1683 42.1599 99.7037L40.8639 104.86Z" fill="black"/><path d="M32.2046 102.747C32.7117 102.925 32.8432 102.85 33.0311 102.324L35.0973 96.5859L35.2851 96.6517L38.0651 104.315C38.1027 104.409 38.1308 104.494 38.1684 104.569L40.1031 99.2063C40.2909 98.6803 40.244 98.5394 39.7274 98.3516L39.765 98.2577L41.1456 98.7554L41.108 98.8494C40.6009 98.6709 40.4694 98.7461 40.2816 99.272L38.2999 104.785C38.4314 104.945 38.591 105.039 38.8352 105.123L38.7976 105.217L38.0181 104.935L35.1442 97.0086L33.2095 102.381C33.0217 102.907 33.0686 103.048 33.5852 103.235L33.5476 103.329L32.1576 102.832L32.2046 102.747Z" fill="black"/><path d="M28.1661 100.971C26.9451 100.304 26.8512 99.4779 26.4756 99.2713L26.8888 97.4868L27.0579 97.5807C26.5789 99.3182 27.2645 100.267 28.26 100.802C29.4997 101.478 31.4438 101.215 32.5427 99.1867C33.5946 97.2426 32.8244 95.5427 31.1245 94.6223C30.3638 94.2091 29.8378 94.0118 29.1334 93.7207L27.8655 96.0686C27.6589 96.4443 27.6777 96.4255 29.7721 97.7873L29.6782 97.9564L26.8043 96.0968L26.8982 95.9278C27.4711 96.2941 27.4523 96.3222 27.6965 95.8714L29.0301 93.4014C29.8472 93.777 30.3262 93.8804 31.256 94.3875C32.8808 95.2703 34.0172 97.0642 32.7869 99.3276C31.6223 101.441 29.5655 101.732 28.1661 100.971Z" fill="black"/><path d="M17.9196 90.5557L18.0699 90.6872C17.0086 92.481 16.9804 92.4623 17.3561 92.791L18.7367 93.9837L22.5874 89.5132C22.9536 89.0906 22.9536 88.9403 22.5498 88.5834L22.6155 88.5083L23.7613 89.5038L23.6956 89.579C23.2824 89.2221 23.1321 89.2503 22.7658 89.6729L18.9152 94.1434L20.2958 95.3362C20.6714 95.6649 20.662 95.6367 22.2774 94.3218L22.4277 94.4533L20.6526 95.9091L16.7363 92.528L17.9196 90.5557Z" fill="black"/><path d="M11.4486 86.5928C11.8055 86.9967 11.9558 86.9967 12.3784 86.621L16.37 83.099C16.7926 82.7328 16.8114 82.5731 16.4545 82.1693L16.5296 82.1035L17.5345 83.2399L17.4594 83.3057C17.1025 82.9018 16.9523 82.9018 16.5296 83.2775L14.5855 84.9962L17.6848 88.5087L19.6289 86.79C20.0516 86.4238 20.0703 86.2641 19.7134 85.8602L19.7886 85.7945L20.7935 86.9309L20.7184 86.9967C20.3615 86.5928 20.2112 86.5928 19.7886 86.9685L15.7971 90.4904C15.3744 90.8567 15.3556 91.0164 15.7125 91.4202L15.6374 91.4859L14.6325 90.3495L14.7076 90.2838C15.0645 90.6876 15.2148 90.6876 15.6374 90.312L17.5345 88.6402L14.4352 85.1277L12.5381 86.7994C12.1155 87.1657 12.0967 87.3254 12.4536 87.7292L12.3784 87.795L11.3735 86.6586L11.4486 86.5928Z" fill="black"/><path d="M11.5426 78.7224L13.6369 77.7832L16.3793 81.8593L16.2948 81.9156C15.9943 81.4648 15.844 81.4554 15.3744 81.7653L10.9603 84.7332C10.5001 85.0431 10.4531 85.1934 10.7536 85.6442L10.6691 85.7005L8.08636 81.8686L9.73933 80.2814L9.85203 80.4411C8.34934 81.8874 8.33055 81.8686 8.61231 82.2819L10.3404 84.8552L12.7729 83.2211L11.5238 81.3615C11.4205 81.2112 11.3359 81.2582 10.5752 81.8874L10.4625 81.7278L12.3315 80.1124L12.4442 80.272C11.6553 81.0328 11.5519 81.0609 11.7116 81.2957L12.9325 83.1084L15.7125 81.2394L13.8154 78.4218C13.5336 78.0086 13.543 78.0368 11.6365 78.882L11.5426 78.7224Z" fill="black"/><path d="M9.57027 75.1065L9.49513 74.928C10.9603 73.8761 10.9509 72.5425 10.3592 71.1243C9.8802 69.9691 9.05372 69.3962 8.10514 69.7907C7.10961 70.2039 7.07204 70.852 7.26927 73.0403C7.43832 74.8529 7.38197 75.67 6.39583 76.0832C5.40969 76.4965 4.60199 75.67 4.21693 74.759C3.60646 73.2938 4.06666 72.6176 3.88821 72.195L5.33455 71.0586L5.40969 71.237C3.94456 72.2889 3.85065 73.369 4.39537 74.6744C4.72409 75.4727 5.49422 76.149 6.28313 75.8202C7.05326 75.5009 7.19414 74.8905 7.01569 73.0403C6.81846 70.8989 6.82785 70.0161 7.99244 69.5277C9.13824 69.0487 10.0117 69.7719 10.5376 71.0398C11.2326 72.7115 10.8382 73.538 11.0166 73.97L9.57027 75.1065Z" fill="black"/><path d="M5.77598 64.1839L8.05819 63.9585L9.37305 68.7014L9.27913 68.7295C9.13825 68.213 8.99737 68.1473 8.45265 68.2975L3.32471 69.7157C2.78937 69.866 2.69546 69.988 2.84572 70.514L2.75181 70.5422L1.51208 66.0904L3.57829 65.1043L3.63464 65.2921C1.75627 66.1938 1.73749 66.1656 1.86897 66.6446L2.69546 69.6312L5.5224 68.8422L4.92132 66.6821C4.87436 66.5037 4.78044 66.5319 3.85065 66.8794L3.7943 66.6915L6.07651 65.7523L6.13287 65.9402C5.14672 66.4098 5.04341 66.4098 5.11855 66.6821L5.70084 68.7953L8.92224 67.9031L8.01123 64.6347C7.87975 64.1557 7.87975 64.1839 5.80415 64.3811L5.77598 64.1839Z" fill="black"/><path d="M7.28805 59.1028L1.05188 62.4839L6.92177 62.6624C7.47589 62.6811 7.58859 62.5872 7.51346 61.9955L7.60737 61.9861L7.77643 63.517L7.68251 63.5264C7.62616 62.9911 7.49467 62.8784 6.93116 62.8596L1.54025 62.6999C0.986134 62.6811 0.882824 62.8032 0.967351 63.5546L0.873432 63.564L0.741947 62.3712L7.04386 58.9526L0.14087 57.0554L0.00938416 55.8721L0.103302 55.8627C0.187829 56.614 0.319315 56.7079 0.854649 56.5577L6.07651 55.1865C6.61184 55.0362 6.71515 54.8953 6.6588 54.36L6.75272 54.3506L6.93116 55.919L6.83724 55.9284C6.7715 55.3461 6.64941 55.2804 6.10468 55.4306L0.422625 56.9333L7.25048 58.8117L7.28805 59.1028Z" fill="black"/><path d="M6.48036 48.265C7.0157 48.096 7.1284 47.9269 7.16597 47.3916L7.25988 47.401L7.15657 49.1948L7.06266 49.1854C7.10961 48.4341 7.0063 48.3684 6.47097 48.528L5.11855 48.9506L4.91193 52.4256L6.208 53.0455C6.71516 53.2803 6.81847 53.2333 6.86543 52.4726L6.95935 52.482L6.85604 54.2289L6.76212 54.2195C6.79029 53.6841 6.70577 53.4963 6.19861 53.2615L0.281755 50.4721L0.187837 50.5003L0.0939183 50.4909C0.0751346 50.4439 0.056351 50.4064 0 50.397L0.00939183 50.3031L6.48036 48.265ZM4.7147 52.3411L4.91193 49.0164L0.56351 50.3782L4.7147 52.3411Z" fill="black"/><path d="M2.11315 38.967C2.00045 39.493 2.09437 39.6151 2.63909 39.7278L8.6029 40.9957L8.56534 41.1835L1.34302 44.9872C1.2491 45.0341 1.17397 45.0811 1.09883 45.1281L6.67758 46.3114C7.22231 46.4241 7.36318 46.3584 7.47589 45.8325L7.5698 45.8512L7.25987 47.2882L7.16596 47.2694C7.27866 46.7435 7.18474 46.6214 6.64001 46.5087L0.910997 45.2877C0.77012 45.438 0.704377 45.6164 0.648026 45.8606L0.554108 45.8418L0.723161 45.0341L8.18966 41.1084L2.60153 39.925C2.0568 39.8123 1.91592 39.878 1.80322 40.404L1.7093 40.3852L2.01923 38.9482L2.11315 38.967Z" fill="black"/><path d="M6.56488 33.0404L6.49914 33.2283C4.45172 32.862 4.45172 32.8244 4.27328 33.294L3.64403 35.0033L9.17581 37.0507C9.70176 37.248 9.84263 37.1916 10.0305 36.6845L10.1244 36.722L9.59845 38.1496L9.50453 38.112C9.69236 37.6048 9.61723 37.4734 9.09129 37.2761L3.5595 35.2287L2.93025 36.938C2.76119 37.4076 2.77998 37.3794 4.57382 38.4313L4.50807 38.6192L2.5264 37.464L4.32024 32.6084L6.56488 33.0404Z" fill="black"/><path d="M5.83232 31.275C5.32516 31.0402 5.17489 31.0777 4.94949 31.5661L4.86496 31.5285L5.513 30.1479L5.59752 30.1855C5.37212 30.6739 5.42847 30.8148 5.93563 31.0496L10.7442 33.313C11.2514 33.5478 11.4017 33.5102 11.6271 33.0218L11.7116 33.0594L11.0636 34.44L10.979 34.4024C11.2044 33.9141 11.1481 33.7732 10.6409 33.5384L5.83232 31.275Z" fill="black"/><path d="M7.34442 26.3256C8.04881 25.1234 8.88468 25.0671 9.10069 24.6914L10.8757 25.161L10.7724 25.3301C9.05373 24.7853 8.08637 25.4521 7.51347 26.4195C6.75273 27.7156 6.95936 29.6785 8.95042 30.8431C10.763 31.9043 12.5099 31.3408 13.4021 29.81C14.1629 28.5045 13.9657 27.2366 12.6226 25.856L12.7635 25.7245C14.3507 27.2648 14.3601 28.7017 13.6369 29.9414C12.6884 31.5568 10.8006 32.233 8.80955 31.0685C6.72456 29.8663 6.48976 27.7813 7.34442 26.3256Z" fill="black"/><path d="M19.8825 11.8338C19.4974 12.2095 19.4317 12.4255 19.6101 12.9514L21.836 19.7042L21.7702 19.7699L19.3284 18.934L20.1361 21.3947L20.0703 21.4604L13.3364 19.1688C12.8104 18.9904 12.6038 19.0561 12.2188 19.4318L12.153 19.3661L13.4397 18.0982L13.5054 18.1639C12.9701 18.6992 13.0077 18.7932 13.5336 18.9716L19.8449 21.1223L19.103 18.8589L15.0457 17.4689C14.5198 17.2905 14.3131 17.3562 13.9281 17.7319L13.8623 17.6661L15.149 16.3982L15.2148 16.464C14.6794 16.9993 14.717 17.0932 15.2429 17.2717L19.0091 18.549L17.7505 14.7922C17.5721 14.2663 17.4782 14.2193 16.9428 14.7547L16.8771 14.6889L18.1168 13.4586L18.1826 13.5243C17.7975 13.9 17.7318 14.116 17.9102 14.642L19.2345 18.6429L21.5448 19.4318L19.4599 13.1017C19.2814 12.5758 19.1875 12.5288 18.6522 13.0641L18.5864 12.9984L19.8261 11.7681L19.8825 11.8338Z" fill="black"/><path d="M27.9783 11.8711L28.9456 13.9467L24.9071 16.7549L24.8508 16.6704C25.2922 16.3604 25.311 16.2102 24.9917 15.75L21.9581 11.3828C21.6388 10.9226 21.4885 10.885 21.0471 11.1855L20.9908 11.101L24.7851 8.46191L26.3911 10.0961L26.2314 10.2088C24.7663 8.73428 24.7851 8.7061 24.3718 8.98786L21.8266 10.7535L23.4984 13.1672L25.3392 11.8899C25.4894 11.7866 25.4331 11.7021 24.8038 10.9507L24.9635 10.838L26.6071 12.6882L26.4474 12.8009C25.6773 12.0214 25.6491 11.9181 25.4143 12.0872L23.6017 13.3363L25.5082 16.0881L28.2976 14.1534C28.7108 13.8716 28.6827 13.881 27.8092 11.9838L27.9783 11.8711Z" fill="black"/><path d="M33.9233 9.35399C34.5901 10.6313 33.6321 11.6174 32.3079 12.3124C31.3781 12.8008 30.7019 12.9605 30.1572 13.214L29.4434 13.5615L29.4058 13.4864C29.8848 13.2422 29.9224 13.0919 29.6594 12.6036L27.1987 7.88887C26.9358 7.3911 26.7949 7.33475 26.3159 7.58833L26.2689 7.5038L26.9733 7.13752C27.4899 6.83698 28.0064 6.37678 28.7296 6.00111C30.0914 5.28733 31.209 5.44699 31.7256 6.44253C32.1764 7.30657 31.735 8.01096 31.0776 8.5369C32.2327 8.17062 33.341 8.23636 33.9233 9.35399ZM28.4291 9.70149C28.9926 9.48548 29.4809 9.25068 29.9599 9.0065C31.5565 8.17062 31.9134 7.35353 31.4908 6.55523C31.0212 5.65361 30.0163 5.54091 28.8235 6.16077C28.3633 6.40496 27.9407 6.69611 27.1518 7.26901L28.4291 9.70149ZM33.6791 9.47609C33.0311 8.23637 31.6411 8.33968 30.2041 9.09102C29.6124 9.40095 29.1428 9.59818 28.523 9.87054L30.1478 12.9886C31.0682 12.6693 31.5941 12.4627 32.2234 12.134C33.2846 11.5799 34.3365 10.7346 33.6791 9.47609Z" fill="black"/></svg>
