<svg width="530" height="230" viewBox="0 0 530 230" fill="none" xmlns="http://www.w3.org/2000/svg">
<path id="Ellipse" d="M529 115C529 130.544 521.745 145.434 508.459 159.065C495.168 172.701 475.888 185.027 451.985 195.4C404.183 216.144 338.074 229 265 229C191.926 229 125.817 216.144 78.0148 195.4C54.1119 185.027 34.8316 172.701 21.5411 159.065C8.25521 145.434 1 130.544 1 115C1 99.4555 8.25521 84.5662 21.5411 70.9348C34.8316 57.2988 54.1119 44.973 78.0148 34.6001C125.817 13.8555 191.926 1 265 1C338.074 1 404.183 13.8555 451.985 34.6001C475.888 44.973 495.168 57.2988 508.459 70.9348C521.745 84.5662 529 99.4555 529 115Z" stroke="#252525" stroke-width="2"/>
</svg>
